<?xml version="1.0" encoding="UTF-8"?><!DOCTYPE svg PUBLIC "-//W3C//DTD SVG 1.1//EN" "http://www.w3.org/Graphics/SVG/1.1/DTD/svg11.dtd"><svg xmlns="http://www.w3.org/2000/svg" xmlns:xlink="http://www.w3.org/1999/xlink" version="1.1" id="brand-esp-home" width="24" height="24" viewBox="0 0 24 24"><path d="M16.57 14.92H11.84C11.69 14.92 11.57 14.8 11.57 14.65V12.8H11.05C10.95 12.8 10.85 12.74 10.81 12.63C10.76 12.53 10.79 12.42 10.86 12.34L14 9.19C14.11 9.09 14.29 9.09 14.39 9.19L15.8 10.6V10.35C15.8 10.2 15.92 10.08 16.07 10.08H16.56C16.71 10.08 16.83 10.2 16.83 10.35V11.63L17.54 12.34C17.62 12.42 17.64 12.53 17.6 12.64C17.56 12.74 17.46 12.8 17.35 12.8H16.83V14.66C16.83 14.8 16.71 14.92 16.57 14.92M21.41 6.14H21.34V5.32C21.34 4.76 20.88 4.3 20.31 4.3C19.74 4.3 19.28 4.76 19.28 5.32V6.14H18.89V5.32C18.88 4.75 18.42 4.3 17.86 4.3H17.86C17.29 4.3 16.83 4.76 16.83 5.32V6.14H16.43V5.32C16.43 4.76 15.97 4.3 15.4 4.3C14.84 4.3 14.38 4.76 14.38 5.32V6.14H14V5.32C14 4.76 13.5 4.3 12.95 4.3S11.92 4.76 11.92 5.32V6.14H11.5V5.32C11.5 4.76 11.06 4.3 10.5 4.3S9.47 4.76 9.47 5.32V6.14H9.07V5.32C9.07 4.76 8.61 4.3 8.05 4.3C7.5 4.3 7 4.76 7 5.32V6.14H6.95C6.62 6.14 6.35 6.4 6.35 6.73V16.47H2.59V16H5.54C5.71 16 5.84 15.86 5.84 15.7V14.63C5.84 14.47 5.71 14.34 5.54 14.34H2.59V13.87H5.54C5.71 13.87 5.84 13.73 5.84 13.57V12.5C5.84 12.34 5.71 12.21 5.54 12.21H2.59V11.73H5.54C5.71 11.73 5.84 11.6 5.84 11.44V10.37C5.84 10.21 5.71 10.08 5.54 10.08H2.59V7.1C2.59 6.93 2.46 6.8 2.3 6.8S2 6.93 2 7.1V10.38C2 10.54 2.13 10.67 2.3 10.67H5.25V11.14H2.3C2.13 11.14 2 11.28 2 11.44V12.5C2 12.67 2.13 12.8 2.3 12.8H5.25V13.28H2.3C2.13 13.27 2 13.41 2 13.57V14.63C2 14.8 2.13 14.93 2.3 14.93H5.25V15.4H2.3C2.13 15.4 2 15.53 2 15.7V16.76C2 16.93 2.13 17.06 2.3 17.06H6.35V17.13C6.35 17.46 6.62 17.73 6.95 17.73H7V18.68C7 19.24 7.5 19.7 8.05 19.7C8.61 19.7 9.07 19.24 9.07 18.68V17.73H9.47V18.68C9.47 19.24 9.93 19.7 10.5 19.7S11.5 19.24 11.5 18.68V17.73H11.92V18.68C11.92 19.24 12.39 19.7 12.95 19.7S14 19.24 14 18.68V17.73H14.38V18.68C14.38 19.24 14.84 19.7 15.41 19.7C15.97 19.7 16.43 19.24 16.43 18.68V17.73H16.83V18.68C16.83 19.24 17.3 19.7 17.86 19.7C18.43 19.7 18.89 19.24 18.89 18.68V17.73H19.29V18.68C19.29 19.24 19.75 19.7 20.31 19.7C20.88 19.7 21.34 19.24 21.34 18.68V17.73H21.41C21.74 17.73 22 17.46 22 17.13V6.73C22 6.4 21.73 6.14 21.41 6.14M19.88 5.32C19.88 5.09 20.07 4.89 20.31 4.89S20.74 5.09 20.74 5.32V6.14H19.88V5.32M17.43 5.32C17.43 5.09 17.62 4.89 17.86 4.89H17.86C18.1 4.89 18.29 5.08 18.29 5.32V6.14H17.43V5.32M14.97 5.32C14.97 5.09 15.17 4.89 15.4 4.89C15.64 4.89 15.83 5.09 15.83 5.32V6.14H14.97V5.32M12.5 5.32C12.5 5.09 12.71 4.89 12.95 4.89C13.19 4.89 13.38 5.09 13.38 5.32V6.14H12.5V5.32M10.07 5.32C10.07 5.09 10.26 4.89 10.5 4.89C10.73 4.89 10.93 5.09 10.93 5.32V6.14H10.07V5.32M7.62 5.32C7.62 5.09 7.81 4.89 8.05 4.89C8.28 4.89 8.5 5.09 8.5 5.32V6.14H7.62V5.32M8.5 18.68C8.5 18.92 8.28 19.11 8.05 19.11C7.81 19.11 7.62 18.92 7.62 18.68V17.73H8.5V18.68M10.93 18.68C10.93 18.91 10.73 19.11 10.5 19.11C10.26 19.11 10.07 18.91 10.07 18.68V17.73H10.93V18.68M13.38 18.68C13.38 18.91 13.19 19.11 12.95 19.11C12.71 19.11 12.5 18.91 12.5 18.68V17.73H13.38V18.68M15.84 18.68C15.84 18.91 15.64 19.11 15.41 19.11C15.17 19.11 15 18.91 15 18.68V17.73H15.84V18.68M18.29 18.68C18.29 18.91 18.1 19.11 17.86 19.11S17.43 18.91 17.43 18.68V17.73H18.29V18.68M20.74 18.68C20.74 18.91 20.55 19.11 20.31 19.11S19.88 18.91 19.88 18.68V17.73H20.74V18.68M21.34 17.06H7V6.8H21.34V17.06Z" /></svg>