<?xml version="1.0" encoding="UTF-8"?><!DOCTYPE svg PUBLIC "-//W3C//DTD SVG 1.1//EN" "http://www.w3.org/Graphics/SVG/1.1/DTD/svg11.dtd"><svg xmlns="http://www.w3.org/2000/svg" xmlns:xlink="http://www.w3.org/1999/xlink" version="1.1" id="brand-git" width="24" height="24" viewBox="0 0 24 24"><path d="M21.62 11.11L12.89 2.38C12.39 1.87 11.57 1.87 11.07 2.38L9.26 4.19L11.56 6.5C12.09 6.31 12.7 6.43 13.13 6.86C13.56 7.29 13.68 7.91 13.5 8.44L15.71 10.66C16.25 10.47 16.86 10.59 17.29 11C17.89 11.62 17.89 12.59 17.29 13.19C16.7 13.79 15.73 13.79 15.13 13.19C14.68 12.74 14.56 12.08 14.79 11.5L12.73 9.45V14.9C12.87 14.97 13 15.06 13.13 15.19C13.73 15.78 13.73 16.75 13.13 17.35C12.53 17.95 11.56 17.95 10.96 17.35C10.36 16.75 10.36 15.78 10.96 15.19C11.11 15.04 11.28 14.93 11.47 14.85V9.36C11.28 9.28 11.11 9.17 10.96 9.03C10.5 8.57 10.4 7.91 10.63 7.35L8.37 5.08L2.38 11.07C1.87 11.57 1.87 12.39 2.38 12.89L11.11 21.62C11.61 22.13 12.43 22.13 12.93 21.62L21.62 12.93C22.13 12.43 22.13 11.61 21.62 11.11Z" /></svg>