<?xml version="1.0" encoding="UTF-8"?><!DOCTYPE svg PUBLIC "-//W3C//DTD SVG 1.1//EN" "http://www.w3.org/Graphics/SVG/1.1/DTD/svg11.dtd"><svg xmlns="http://www.w3.org/2000/svg" xmlns:xlink="http://www.w3.org/1999/xlink" version="1.1" id="brand-home-assistant" width="24" height="24" viewBox="0 0 24 24"><path d="M8.11 19.63C7.94 19.63 7.81 19.5 7.81 19.33C7.81 19.16 7.94 19 8.11 19C8.28 19 8.41 19.16 8.41 19.33C8.41 19.5 8.28 19.63 8.11 19.63M10.33 17.35C10.16 17.35 10.03 17.22 10.03 17.05C10.03 16.88 10.16 16.74 10.33 16.74S10.63 16.88 10.63 17.05C10.63 17.22 10.5 17.35 10.33 17.35M7.71 17C7.54 17 7.4 16.86 7.4 16.69C7.4 16.53 7.54 16.39 7.71 16.39C7.87 16.39 8 16.53 8 16.69C8 16.86 7.87 17 7.71 17M7.45 14.47C7.29 14.47 7.15 14.33 7.15 14.16S7.29 13.86 7.45 13.86 7.76 14 7.76 14.16 7.62 14.47 7.45 14.47M13.76 14.82C13.6 14.82 13.46 14.68 13.46 14.5C13.46 14.35 13.6 14.21 13.76 14.21S14.07 14.35 14.07 14.5C14.07 14.68 13.93 14.82 13.76 14.82M17.2 17.15C17.03 17.15 16.89 17 16.89 16.85C16.89 16.68 17.03 16.54 17.2 16.54S17.5 16.68 17.5 16.85C17.5 17 17.36 17.15 17.2 17.15M15.88 19.58C15.72 19.58 15.58 19.45 15.58 19.28C15.58 19.11 15.72 18.97 15.88 18.97C16.05 18.97 16.19 19.11 16.19 19.28C16.19 19.45 16.05 19.58 15.88 19.58M17.3 12.34C17.13 12.34 17 12.2 17 12.03C17 11.87 17.13 11.73 17.3 11.73S17.6 11.87 17.6 12.03C17.6 12.2 17.46 12.34 17.3 12.34M15.63 10.36C15.46 10.36 15.33 10.23 15.33 10.06S15.46 9.76 15.63 9.76C15.8 9.76 15.93 9.89 15.93 10.06S15.8 10.36 15.63 10.36M13.61 9.15C13.45 9.15 13.31 9 13.31 8.84S13.45 8.54 13.61 8.54C13.78 8.54 13.92 8.68 13.92 8.84S13.78 9.15 13.61 9.15M10.38 9.15C10.22 9.15 10.08 9 10.08 8.84S10.22 8.54 10.38 8.54 10.69 8.68 10.69 8.84 10.55 9.15 10.38 9.15M7.76 10.31C7.59 10.31 7.45 10.18 7.45 10C7.45 9.84 7.59 9.7 7.76 9.7S8.06 9.84 8.06 10C8.06 10.18 7.92 10.31 7.76 10.31M9.68 12.19C9.5 12.19 9.37 12.05 9.37 11.88S9.5 11.58 9.68 11.58C9.84 11.58 10 11.71 10 11.88S9.84 12.19 9.68 12.19M13.97 12.34C13.8 12.34 13.66 12.2 13.66 12.03C13.66 11.87 13.8 11.73 13.97 11.73S14.27 11.87 14.27 12.03C14.27 12.2 14.13 12.34 13.97 12.34M21.87 13.06L19.77 10.91V7.5C19.77 7.3 19.59 7.12 19.38 7.12H17.74C17.5 7.12 17.35 7.3 17.35 7.5V8.44L12.42 3.45L12.41 3.44C12.18 3.21 11.81 3.22 11.58 3.45L2.13 13.06C2.05 13.14 2 13.26 2 13.39C2 13.65 2.21 13.86 2.47 13.86H4.22V20.61C4.22 20.82 4.4 21 4.62 21H11.64V21L10.23 19.58H8.82C8.72 19.88 8.44 20.09 8.11 20.09C7.69 20.09 7.35 19.75 7.35 19.33S7.69 18.57 8.11 18.57C8.44 18.57 8.72 18.78 8.82 19.08H9.72L8.03 17.38C7.93 17.43 7.82 17.45 7.71 17.45C7.29 17.45 6.95 17.11 6.95 16.69S7.29 15.93 7.71 15.93C8.13 15.93 8.46 16.27 8.46 16.69C8.46 16.81 8.44 16.92 8.39 17L10.08 18.72V17.77C9.79 17.66 9.57 17.38 9.57 17.05C9.57 16.63 9.91 16.29 10.33 16.29S11.09 16.63 11.09 17.05C11.09 17.38 10.88 17.66 10.58 17.77V19.22L11.74 20.39V16.6L9.57 14.42H8.17C8.06 14.71 7.78 14.92 7.45 14.92C7.04 14.92 6.7 14.58 6.7 14.16S7.04 13.4 7.45 13.4C7.78 13.4 8.06 13.61 8.17 13.91H9.07L7.5 12.34V10.73C7.21 10.62 7 10.34 7 10C7 9.59 7.34 9.25 7.76 9.25C8.18 9.25 8.5 9.59 8.5 10C8.5 10.34 8.3 10.62 8 10.73V12.13L9.42 13.55V12.6C9.13 12.5 8.92 12.21 8.92 11.88C8.92 11.46 9.26 11.12 9.67 11.12C10.09 11.12 10.43 11.46 10.43 11.88C10.43 12.21 10.22 12.5 9.93 12.6V14.06L11.74 15.88V10.57L10.71 9.53C10.61 9.58 10.5 9.6 10.38 9.6C9.96 9.6 9.62 9.26 9.62 8.84S9.96 8.08 10.38 8.08 11.14 8.42 11.14 8.84C11.14 8.96 11.11 9.07 11.06 9.17L12 10.11L12.93 9.17C12.88 9.07 12.85 8.96 12.85 8.84C12.85 8.42 13.19 8.08 13.61 8.08S14.37 8.42 14.37 8.84 14.03 9.6 13.61 9.6C13.5 9.6 13.38 9.58 13.29 9.53L12.25 10.57V18L13.5 16.74V15.23C13.22 15.13 13 14.85 13 14.5C13 14.1 13.35 13.76 13.76 13.76S14.5 14.1 14.5 14.5C14.5 14.85 14.31 15.13 14 15.23V16.24L15.38 14.87V13.81L14.29 12.72C14.19 12.77 14.08 12.8 13.97 12.8C13.55 12.8 13.21 12.46 13.21 12.04C13.21 11.62 13.55 11.28 13.97 11.28C14.38 11.28 14.72 11.62 14.72 12.04C14.72 12.15 14.7 12.26 14.65 12.36L15.38 13.1V10.78C15.08 10.67 14.87 10.39 14.87 10.06C14.87 9.64 15.21 9.3 15.63 9.3S16.39 9.64 16.39 10.06C16.39 10.39 16.18 10.67 15.88 10.78V13.1L16.61 12.36C16.57 12.26 16.54 12.15 16.54 12.04C16.54 11.62 16.88 11.28 17.3 11.28S18.05 11.62 18.05 12.04C18.05 12.46 17.71 12.8 17.3 12.8C17.18 12.8 17.07 12.77 16.97 12.72L15.88 13.81V15.08L14.37 16.59H16.5C16.59 16.3 16.86 16.09 17.2 16.09C17.61 16.09 17.95 16.43 17.95 16.85C17.95 17.27 17.61 17.61 17.2 17.61C16.86 17.61 16.59 17.4 16.5 17.1H13.87L12.25 18.73V20.39L13.61 19H15.17C15.27 18.73 15.55 18.5 15.88 18.5C16.3 18.5 16.64 18.86 16.64 19.28S16.3 20.04 15.88 20.04C15.55 20.04 15.27 19.83 15.17 19.53H13.82L12.35 21H19.38C19.59 21 19.77 20.82 19.77 20.61V13.86H21.53C21.65 13.86 21.77 13.81 21.86 13.72C22.05 13.54 22.05 13.24 21.87 13.06Z" /></svg>