<?xml version="1.0" encoding="UTF-8"?><!DOCTYPE svg PUBLIC "-//W3C//DTD SVG 1.1//EN" "http://www.w3.org/Graphics/SVG/1.1/DTD/svg11.dtd"><svg xmlns="http://www.w3.org/2000/svg" xmlns:xlink="http://www.w3.org/1999/xlink" version="1.1" id="brand-pictogrammers" width="24" height="24" viewBox="0 0 24 24"><path d="M6.613,2h10.906c1.51,0,2.726,1.217,2.726,2.726v14.547c0,1.51-1.217,2.726-2.726,2.726H6.613c-1.51,0-2.726-1.217-2.726-2.726V4.726C3.887,3.225,5.112,2,6.613,2z M6.613,3.821c-0.5,0-0.906,0.406-0.906,0.906v10.906c0,0.5,0.406,0.906,0.906,0.906h10.906c0.5,0,0.906-0.406,0.906-0.906V4.726c0-0.5-0.406-0.906-0.906-0.906H6.613z M5.708,19.274c0,0.5,0.406,0.906,0.906,0.906h10.906c0.5,0,0.906-0.406,0.906-0.906v-1.061c-0.285,0.095-0.587,0.155-0.906,0.155H6.613c-0.319,0-0.621-0.052-0.906-0.155V19.274z M11.195,11.344v2.476H9.426V6.504h2.925c0.561,0,1.061,0.104,1.484,0.311c0.431,0.207,0.768,0.5,1.001,0.88c0.233,0.38,0.354,0.811,0.354,1.303c0,0.716-0.25,1.286-0.768,1.717c-0.518,0.431-1.217,0.647-2.105,0.647L11.195,11.344L11.195,11.344z M11.204,10.007h1.156c0.345,0,0.604-0.086,0.785-0.259c0.181-0.173,0.276-0.423,0.276-0.742c0-0.354-0.095-0.63-0.276-0.837c-0.181-0.207-0.431-0.319-0.751-0.319h-1.182L11.204,10.007L11.204,10.007z" /></svg>