<?xml version="1.0" encoding="UTF-8"?><!DOCTYPE svg PUBLIC "-//W3C//DTD SVG 1.1//EN" "http://www.w3.org/Graphics/SVG/1.1/DTD/svg11.dtd"><svg xmlns="http://www.w3.org/2000/svg" xmlns:xlink="http://www.w3.org/1999/xlink" version="1.1" id="brand-zend-framework" width="24" height="24" viewBox="0 0 24 24"><path d="M11.41 10.19C11.41 10.19 11.41 7.54 14.06 7.54H22C22 7.54 22 10.19 19.35 10.19H11.41M15.38 13.57C18.03 13.57 18.03 10.92 18.03 10.92H14.06C11.41 10.92 11.41 13.57 11.41 13.57H15.38M12.73 16.95C15.38 16.95 15.38 14.31 15.38 14.31H14.05C11.41 14.31 11.41 16.95 11.41 16.95H12.73M6.2 14.89L11.66 7.4H2.78V9.5H7.5L2 17H10.5V14.89H6.2Z" /></svg>